<svg width="89" height="32" viewBox="0 0 89 32" fill="none" xmlns="http://www.w3.org/2000/svg">
<path d="M8.64 3.57L8.61 4.08C8.55 5.02 8.27 7.34 7.77 11.04C7.15 15.48 6.84 17.8 6.84 18C6.84 18.6 7.03 19.11 7.41 19.53C7.79 19.93 8.29 20.13 8.91 20.13C9.55 20.13 10.13 19.92 10.65 19.5C11.19 19.06 11.6 18.54 11.88 17.94L13.56 2.61C13.66 1.69 14.03 1.03 14.67 0.629999C15.33 0.21 16.02 0 16.74 0C17.22 0 17.72 0.0999999 18.24 0.3L16.23 16.92C18.87 15.7 20.5 14.98 21.12 14.76L21.57 16.86C19.81 17.58 17.94 18.41 15.96 19.35L15.21 25.47C15.09 26.55 14.82 27.47 14.4 28.23C14 29.01 13.51 29.6 12.93 30C11.87 30.72 10.71 31.08 9.45 31.08C8.21 31.08 7.17 30.62 6.33 29.7C5.51 28.8 5.1 27.71 5.1 26.43C5.1 25.15 5.52 23.99 6.36 22.95C5.3 22.77 4.42 22.31 3.72 21.57C3.02 20.81 2.67 19.88 2.67 18.78C2.67 18.66 2.69 18.44 2.73 18.12L3.69 10.74C1.23 9.18 0 7.26 0 4.98C0 2.86 0.77 1.4 2.31 0.599999C3.03 0.2 3.85 0 4.77 0C5.71 0 6.59 0.3 7.41 0.899999C8.23 1.48 8.64 2.37 8.64 3.57ZM3.66 2.43C3.18 2.43 2.78 2.66 2.46 3.12C2.16 3.58 2.01 4.13 2.01 4.77C2.01 6.17 2.67 7.32 3.99 8.22L4.56 3.9C4.56 3.08 4.36 2.6 3.96 2.46C3.88 2.44 3.78 2.43 3.66 2.43ZM7.38 26.04C7.38 26.7 7.54 27.21 7.86 27.57C8.2 27.93 8.6 28.11 9.06 28.11C9.52 28.11 9.93 27.94 10.29 27.6C10.65 27.28 10.87 26.82 10.95 26.22L11.49 21.51C8.75 23.01 7.38 24.52 7.38 26.04Z" fill="#6BCEFF"/>
<path d="M27.4066 8.43C29.2466 8.43 30.7766 9.02 31.9966 10.2C33.2366 11.38 33.8566 12.82 33.8566 14.52C33.8566 17.1 33.0966 19.17 31.5766 20.73C30.0766 22.27 28.2566 23.04 26.1166 23.04C23.9766 23.04 22.2766 22.43 21.0166 21.21C19.7766 19.99 19.1566 18.48 19.1566 16.68C19.1566 14.16 19.9266 12.16 21.4666 10.68C23.0266 9.18 25.0066 8.43 27.4066 8.43ZM26.8066 10.86C25.8666 10.86 25.0766 11.4 24.4366 12.48C23.7966 13.56 23.4466 14.92 23.3866 16.56C23.3866 17.72 23.6166 18.68 24.0766 19.44C24.5566 20.2 25.2766 20.58 26.2366 20.58C27.1966 20.58 27.9966 20.05 28.6366 18.99C29.2966 17.93 29.6266 16.72 29.6266 15.36C29.6266 14 29.3966 12.92 28.9366 12.12C28.4766 11.28 27.7666 10.86 26.8066 10.86Z" fill="#6BCEFF"/>
<path d="M42.9926 8.43C44.8326 8.43 46.3626 9.02 47.5826 10.2C48.8226 11.38 49.4426 12.82 49.4426 14.52C49.4426 17.1 48.6826 19.17 47.1626 20.73C45.6626 22.27 43.8426 23.04 41.7026 23.04C39.5626 23.04 37.8626 22.43 36.6026 21.21C35.3626 19.99 34.7426 18.48 34.7426 16.68C34.7426 14.16 35.5126 12.16 37.0526 10.68C38.6126 9.18 40.5926 8.43 42.9926 8.43ZM42.3926 10.86C41.4526 10.86 40.6626 11.4 40.0226 12.48C39.3826 13.56 39.0326 14.92 38.9726 16.56C38.9726 17.72 39.2026 18.68 39.6626 19.44C40.1426 20.2 40.8626 20.58 41.8226 20.58C42.7826 20.58 43.5826 20.05 44.2226 18.99C44.8826 17.93 45.2126 16.72 45.2126 15.36C45.2126 14 44.9826 12.92 44.5226 12.12C44.0626 11.28 43.3526 10.86 42.3926 10.86Z" fill="#6BCEFF"/>
<path d="M64.3085 12.06C64.3085 14.14 63.0685 15.73 60.5885 16.83C60.6485 17.19 60.7385 17.62 60.8585 18.12C61.2185 19.6 61.8185 20.36 62.6585 20.4C62.7185 20.4 62.7785 20.4 62.8385 20.4C64.4385 20.4 65.6285 18.99 66.4085 16.17C66.8285 16.55 67.2285 17.12 67.6085 17.88C67.3285 18.96 66.9285 19.87 66.4085 20.61C65.9085 21.35 65.3585 21.88 64.7585 22.2C63.6985 22.76 62.6985 23.04 61.7585 23.04C59.5585 23.04 58.0185 21.81 57.1385 19.35C56.7985 18.37 56.5685 17.37 56.4485 16.35C57.5885 16.07 58.4885 15.61 59.1485 14.97C59.8085 14.31 60.1385 13.61 60.1385 12.87C60.1385 11.59 59.4985 10.95 58.2185 10.95C57.5185 10.95 56.9185 11.22 56.4185 11.76C55.9185 12.28 55.5885 12.91 55.4285 13.65C55.3085 14.67 55.1085 16.28 54.8285 18.48C54.5685 20.66 54.3985 22.12 54.3185 22.86H50.3285C51.7685 10.6 52.6385 3.07 52.9385 0.27C53.3585 0.11 53.9285 0.0299996 54.6485 0.0299996C56.2085 0.0299996 56.9885 0.49 56.9885 1.41V1.59C56.5885 5.21 56.2185 7.98 55.8785 9.9C56.9785 8.88 58.3585 8.37 60.0185 8.37C61.2585 8.37 62.2785 8.69 63.0785 9.33C63.8985 9.97 64.3085 10.88 64.3085 12.06Z" fill="#6BCEFF"/>
<path d="M67.8813 0.779999C68.3413 0.299999 68.9013 0.0599992 69.5613 0.0599992C70.2213 0.0599992 70.7813 0.299999 71.2413 0.779999C71.7213 1.24 71.9613 1.8 71.9613 2.46C71.9613 3.12 71.7213 3.68 71.2413 4.14C70.7813 4.6 70.2213 4.83 69.5613 4.83C68.9013 4.83 68.3413 4.6 67.8813 4.14C67.4213 3.68 67.1913 3.12 67.1913 2.46C67.1913 1.8 67.4213 1.24 67.8813 0.779999ZM66.6513 9.57C66.8513 9.21 67.2313 8.94 67.7913 8.76C68.3513 8.56 68.9013 8.46 69.4413 8.46C70.0013 8.46 70.4913 8.53 70.9113 8.67C70.1313 14.69 69.7413 17.73 69.7413 17.79C69.6413 18.19 69.5913 18.53 69.5913 18.81C69.5913 19.07 69.6113 19.3 69.6513 19.5C69.7313 20.02 70.0913 20.28 70.7313 20.28C71.3913 20.28 71.9913 19.86 72.5313 19.02C73.0913 18.16 73.5113 17.19 73.7913 16.11C73.9313 16.19 74.1513 16.43 74.4513 16.83C74.7513 17.23 74.9313 17.53 74.9913 17.73C74.5913 19.33 73.9113 20.62 72.9513 21.6C71.9913 22.58 70.8413 23.07 69.5013 23.07C68.1613 23.07 67.1613 22.74 66.5013 22.08C65.8613 21.42 65.5413 20.57 65.5413 19.53C65.5413 19.31 65.5513 19.08 65.5713 18.84L66.6513 9.57Z" fill="#6BCEFF"/>
<path d="M78.1247 16.14C79.3647 15.88 80.2847 15.38 80.8847 14.64C81.5047 13.9 81.8147 13.19 81.8147 12.51C81.8147 11.81 81.6247 11.34 81.2447 11.1C80.8847 10.84 80.4847 10.71 80.0447 10.71C79.1047 10.71 78.2747 11.24 77.5547 12.3C76.8547 13.34 76.5047 14.59 76.5047 16.05C76.5047 17.49 76.8447 18.57 77.5247 19.29C78.2247 19.99 79.0847 20.34 80.1047 20.34C81.6047 20.34 83.0447 19.82 84.4247 18.78C85.8047 17.74 86.9247 16.38 87.7847 14.7C88.2247 15.12 88.6247 15.64 88.9847 16.26C88.3247 17.76 87.1547 19.23 85.4747 20.67C84.6347 21.37 83.6347 21.94 82.4747 22.38C81.3347 22.82 80.1547 23.04 78.9347 23.04C76.9347 23.04 75.3547 22.43 74.1947 21.21C72.9547 19.89 72.3347 18.2 72.3347 16.14C72.3347 14.08 73.1047 12.28 74.6447 10.74C76.2047 9.2 78.0647 8.43 80.2247 8.43C81.7647 8.43 83.0147 8.77 83.9747 9.45C84.9347 10.11 85.4247 11.01 85.4447 12.15C85.4447 13.69 84.8247 14.94 83.5847 15.9C82.3647 16.86 80.6847 17.53 78.5447 17.91L78.1247 16.14Z" fill="#6BCEFF"/>
</svg>
