<svg width="24" height="24" viewBox="0 0 24 24" fill="none" xmlns="http://www.w3.org/2000/svg">
<path d="M18 1C18.5523 1 19 1.44772 19 2V2.44922C18.9923 2.44677 18.9843 2.4448 18.9766 2.44238C19.7475 2.68345 20.4174 3.06401 20.9824 3.6748C21.8107 4.57046 22.1673 5.69306 22.3359 7.04883C22.5001 8.36907 22.5 10.0541 22.5 12.1738V12.8262C22.5 14.9459 22.5001 16.6309 22.3359 17.9512C22.1673 19.3069 21.8107 20.4295 20.9824 21.3252C20.1437 22.2319 19.0749 22.6328 17.7852 22.8203C16.5491 23 14.9766 23 13.0283 23H10.9717C9.02338 23 7.45093 23 6.21484 22.8203C4.92508 22.6328 3.85625 22.2319 3.01758 21.3252C2.18927 20.4295 1.83267 19.3069 1.66406 17.9512C1.49989 16.6309 1.49998 14.9459 1.5 12.8262V12.1738C1.49998 10.0541 1.49989 8.36907 1.66406 7.04883C1.83267 5.69306 2.18927 4.57046 3.01758 3.6748C3.58235 3.06424 4.2519 2.68347 5.02246 2.44238C5.01502 2.44471 5.00742 2.44687 5 2.44922V2C5 1.44772 5.44772 1 6 1C6.55228 1 7 1.44772 7 2V2.0918C6.93741 2.09703 6.87562 2.10352 6.81445 2.10938C7.94767 2.00097 9.32534 1.99997 10.9717 2H13.0283C14.6742 1.99997 16.0515 2.00107 17.1846 2.10938C17.1237 2.10356 17.0623 2.09701 17 2.0918V2C17 1.44772 17.4477 1 18 1ZM4.49805 9C4.03943 9 3.81011 9.00037 3.66406 9.14453C3.51809 9.2887 3.51466 9.51506 3.50879 9.96777C3.50006 10.6408 3.5 11.3942 3.5 12.2432V12.7568C3.5 14.9614 3.50145 16.5218 3.64844 17.7041C3.79284 18.8652 4.06274 19.5098 4.48633 19.9678C4.89963 20.4144 5.46494 20.6899 6.50293 20.8408C7.57847 20.9971 9.00416 21 11.0498 21H12.9502C14.9958 21 16.4215 20.9971 17.4971 20.8408C18.5351 20.6899 19.1004 20.4144 19.5137 19.9678C19.9373 19.5098 20.2072 18.8652 20.3516 17.7041C20.4986 16.5218 20.5 14.9614 20.5 12.7568V12.2432C20.5 11.3942 20.4999 10.6408 20.4912 9.96777C20.4853 9.51506 20.4819 9.2887 20.3359 9.14453C20.1899 9.00037 19.9606 9 19.502 9H4.49805ZM8.00879 15.75C8.69914 15.75 9.25879 16.3096 9.25879 17C9.25879 17.6904 8.69914 18.25 8.00879 18.25H8C7.30964 18.25 6.75 17.6904 6.75 17C6.75 16.3096 7.30964 15.75 8 15.75H8.00879ZM12.0049 15.75C12.6951 15.7502 13.2549 16.3098 13.2549 17C13.2549 17.6902 12.6951 18.2498 12.0049 18.25H11.9951C11.3049 18.2498 10.7451 17.6902 10.7451 17C10.7451 16.3098 11.3049 15.7502 11.9951 15.75H12.0049ZM8.00879 11.75C8.69914 11.75 9.25879 12.3096 9.25879 13C9.25879 13.6904 8.69914 14.25 8.00879 14.25H8C7.30964 14.25 6.75 13.6904 6.75 13C6.75 12.3096 7.30964 11.75 8 11.75H8.00879ZM12.0049 11.75C12.6951 11.7502 13.2549 12.3098 13.2549 13C13.2549 13.6902 12.6951 14.2498 12.0049 14.25H11.9951C11.3049 14.2498 10.7451 13.6902 10.7451 13C10.7451 12.3098 11.3049 11.7502 11.9951 11.75H12.0049ZM16 11.75C16.6904 11.75 17.25 12.3096 17.25 13C17.25 13.6904 16.6904 14.25 16 14.25H15.9912C15.3009 14.25 14.7412 13.6904 14.7412 13C14.7412 12.3096 15.3009 11.75 15.9912 11.75H16Z" fill="#6B7280"/>
</svg>
