<svg width="24" height="24" viewBox="0 0 24 24" fill="none" xmlns="http://www.w3.org/2000/svg">
<path d="M16.998 13C17.6676 13 18.1261 13.5026 18.3799 14.0166L19.1309 15.5312C19.1572 15.5629 19.1935 15.5885 19.2314 15.6045L20.5879 15.832C21.1506 15.9267 21.7402 16.2246 21.9385 16.8467C22.1363 17.4679 21.8288 18.052 21.4248 18.457L21.4238 18.458L20.3701 19.5205C20.3481 19.5568 20.331 19.6157 20.332 19.6582L20.6338 20.9736C20.7671 21.557 20.7705 22.3273 20.1797 22.7617C19.5858 23.1983 18.8511 22.959 18.3379 22.6533L17.0654 21.8936C17.0222 21.8841 16.9734 21.8817 16.9307 21.8955L15.6602 22.6533C15.1457 22.961 14.4133 23.1959 13.8203 22.7598C13.2307 22.3259 13.23 21.5577 13.3643 20.9727L13.666 19.6582C13.6672 19.6116 13.6519 19.5601 13.6279 19.5205L12.5723 18.4561C12.1707 18.0511 11.8652 17.4678 12.0615 16.8477C12.2588 16.2249 12.8476 15.9267 13.4111 15.832L14.7637 15.6055C14.8015 15.5884 14.8342 15.5616 14.8623 15.5312L15.6143 14.0156V14.0146C15.87 13.5015 16.3296 13.0002 16.998 13ZM18 1C18.5523 1 19 1.44772 19 2V2.44922C18.9923 2.44677 18.9843 2.4448 18.9766 2.44238C19.7475 2.68345 20.4174 3.06401 20.9824 3.6748C21.7619 4.51762 22.1232 5.56139 22.3037 6.81152C22.4809 8.03955 22.498 9.5834 22.5 11.499C22.5005 12.0512 22.0532 12.4993 21.501 12.5C20.9487 12.5006 20.5006 12.0533 20.5 11.501C20.4992 10.7502 20.4951 10.0817 20.4824 9.4834C20.4765 9.21395 20.2559 9.00016 19.9863 9H4.01367C3.74408 9.00012 3.5234 9.21387 3.51758 9.4834C3.50087 10.2744 3.5 11.1846 3.5 12.2432V12.7568C3.5 14.9614 3.50145 16.5218 3.64844 17.7041C3.79284 18.8652 4.06274 19.5098 4.48633 19.9678C4.8641 20.376 5.36601 20.6391 6.22949 20.7969C7.12953 20.9613 8.31808 20.9939 10.0029 20.999C10.5552 21.0007 11.0016 21.4497 11 22.002C10.9983 22.5542 10.5493 23.0006 9.99707 22.999C8.34145 22.994 6.97428 22.9654 5.87012 22.7637C4.73002 22.5553 3.77793 22.1472 3.01758 21.3252C2.18927 20.4295 1.83267 19.3069 1.66406 17.9512C1.49989 16.6309 1.49998 14.9458 1.5 12.8262V12.1738C1.49998 10.0541 1.49989 8.36907 1.66406 7.04883C1.83267 5.69306 2.18927 4.57046 3.01758 3.6748C3.58235 3.06424 4.2519 2.68347 5.02246 2.44238C5.01502 2.44471 5.00742 2.44687 5 2.44922V2C5 1.44772 5.44772 1 6 1C6.55229 1 7 1.44772 7 2V2.0918C6.93741 2.09703 6.87562 2.10352 6.81445 2.10938C7.94767 2.00097 9.32534 1.99997 10.9717 2H13.0283C14.6742 1.99997 16.0515 2.00107 17.1846 2.10938C17.1237 2.10356 17.0623 2.09701 17 2.0918V2C17 1.44772 17.4477 1 18 1ZM5.70801 2.26855C5.56582 2.29745 5.42627 2.32817 5.29004 2.36426C5.42627 2.32817 5.56582 2.29745 5.70801 2.26855ZM18.291 2.26855C18.4335 2.2975 18.5734 2.32809 18.71 2.36426C18.5734 2.32809 18.4335 2.2975 18.291 2.26855ZM6.64356 2.12598C6.49657 2.14185 6.35335 2.15956 6.21484 2.17969C6.07008 2.20074 5.92824 2.22512 5.78906 2.25195C5.92824 2.22512 6.07008 2.20074 6.21484 2.17969C6.35335 2.15956 6.49657 2.14185 6.64356 2.12598ZM17.7852 2.17969C17.9296 2.20069 18.0711 2.22519 18.21 2.25195C18.0711 2.22519 17.9296 2.20069 17.7852 2.17969C17.6464 2.15951 17.5028 2.14187 17.3555 2.12598C17.5028 2.14187 17.6464 2.15951 17.7852 2.17969Z" fill="#9CA3AF"/>
</svg>
