<svg width="24" height="24" viewBox="0 0 24 24" fill="none" xmlns="http://www.w3.org/2000/svg">
<path d="M17 12.25C17.587 12.251 18.1152 12.6423 18.4482 13.3213L19.2354 14.9102C19.2564 14.9361 19.3079 14.9733 19.3379 14.9844L20.7666 15.2227C21.4954 15.3497 22.0116 15.741 22.1865 16.2949C22.3615 16.8489 22.1645 17.4654 21.6445 17.9834L20.5361 19.1045C20.5151 19.1355 20.4951 19.2111 20.498 19.2471L20.8154 20.624C21.0774 21.766 20.6241 22.2929 20.3311 22.5059C20.0391 22.7179 19.4003 22.9838 18.4023 22.3848L17.0742 21.5957C17.0362 21.5837 16.955 21.5837 16.918 21.5967L15.5898 22.3867C15.1369 22.6597 14.7571 22.7529 14.4512 22.7529L14.4521 22.7539C14.0872 22.7539 13.826 22.6228 13.667 22.5078C13.373 22.2947 12.9207 21.7677 13.1816 20.626L13.499 19.2451C13.502 19.2142 13.4819 19.1376 13.46 19.1064L12.3486 17.9795C11.8336 17.4615 11.6375 16.847 11.8135 16.293C11.9895 15.7401 12.5037 15.3496 13.2256 15.2236L14.6543 14.9854C14.6852 14.9734 14.7357 14.9361 14.7559 14.9102L15.543 13.3203C15.8809 12.6404 16.4111 12.25 16.9971 12.25H17ZM18 1.25C18.4142 1.25 18.75 1.58579 18.75 2V2.63574C19.5546 2.86384 20.2339 3.23403 20.7988 3.84473C21.5308 4.6362 21.88 5.62399 22.0566 6.84766C22.2308 8.05464 22.248 9.5791 22.25 11.499C22.2504 11.9131 21.915 12.2493 21.501 12.25C21.0868 12.2504 20.7505 11.9151 20.75 11.501C20.7489 10.4347 20.7412 9.52882 20.71 8.75H3.28906C3.25069 9.70687 3.25 10.8508 3.25 12.2432V12.7568C3.25 14.9551 3.25099 16.5339 3.40039 17.7354C3.5478 18.9207 3.82862 19.6241 4.30273 20.1367C4.7483 20.6184 5.34054 20.905 6.32031 21.0654C7.32782 21.2303 8.65107 21.2486 10.501 21.25C10.9149 21.2505 11.2501 21.5861 11.25 22C11.2497 22.4142 10.9132 22.7503 10.499 22.75C8.683 22.7486 7.22929 22.7343 6.07813 22.5459C4.89904 22.3529 3.94943 21.9642 3.20117 21.1553C2.42359 20.3144 2.0777 19.2521 1.91211 17.9209C1.74984 16.6161 1.74999 14.9431 1.75 12.8096V12.1904C1.74999 10.0569 1.74984 8.3839 1.91211 7.0791C2.0777 5.7479 2.42359 4.68557 3.20117 3.84473C3.76607 3.23403 4.44535 2.86384 5.25 2.63574V2C5.25 1.58579 5.58579 1.25 6 1.25C6.41421 1.25 6.75 1.58579 6.75 2V2.36523C7.88605 2.24932 9.28407 2.24998 10.9893 2.25H13.0107C14.7159 2.24998 16.114 2.24932 17.25 2.36523V2C17.25 1.58579 17.5858 1.25 18 1.25ZM16.998 13.8076C16.967 13.8476 16.9287 13.9063 16.8877 13.9873L16.0957 15.5859C15.8827 16.0199 15.396 16.3819 14.9141 16.4629L13.4775 16.7031C13.3877 16.7191 13.3223 16.7398 13.2793 16.7588H13.2803C13.3053 16.7998 13.3462 16.8559 13.4131 16.9238L14.5313 18.0557C14.8972 18.4236 15.0757 19.0426 14.9648 19.5605C14.9648 19.5645 14.9629 19.5683 14.9629 19.5723L14.6436 20.9619C14.6206 21.0639 14.6095 21.147 14.6055 21.2109C14.6634 21.1879 14.7354 21.1525 14.8213 21.1006L16.1709 20.2988C16.1709 20.2988 16.1806 20.294 16.1846 20.291C16.6616 20.0212 17.3494 20.022 17.8203 20.2939L19.1738 21.0977C19.2618 21.1507 19.3355 21.186 19.3945 21.209C19.3905 21.145 19.3794 21.062 19.3564 20.96L19.0361 19.5713C19.0361 19.5713 19.0342 19.5636 19.0342 19.5596C18.9234 19.0427 19.1019 18.4226 19.4688 18.0537L20.583 16.9258C20.6519 16.8568 20.6937 16.7998 20.7197 16.7588C20.6758 16.7399 20.6101 16.7181 20.5166 16.7021L19.085 16.4629C18.6011 16.3828 18.1115 16.0209 17.8965 15.584L17.1055 13.9863C17.1055 13.9863 17.1052 13.9852 17.1045 13.9844C17.0655 13.9054 17.028 13.8466 16.998 13.8076ZM11.0498 3.75C9.18218 3.75 7.81099 3.75294 6.75 3.87598V4C6.75 4.41421 6.41421 4.75 6 4.75C5.65792 4.75 5.37237 4.52011 5.28223 4.20703C4.87357 4.36922 4.56265 4.58229 4.30273 4.86328C3.83057 5.37382 3.55024 6.07347 3.40234 7.25H20.5957C20.5877 7.1863 20.5811 7.12305 20.5723 7.06152C20.4187 5.99778 20.1437 5.34605 19.6973 4.86328C19.4372 4.5821 19.1259 4.36926 18.7168 4.20703C18.6266 4.51997 18.342 4.75 18 4.75C17.5858 4.75 17.25 4.41421 17.25 4V3.87598C16.189 3.75294 14.8178 3.75 12.9502 3.75H11.0498Z" fill="#9CA3AF"/>
</svg>
