<svg width="16" height="16" viewBox="0 0 16 16" fill="none" xmlns="http://www.w3.org/2000/svg">
<path fill-rule="evenodd" clip-rule="evenodd" d="M0.833374 8.00016C0.833374 11.9582 4.04204 15.1668 8.00004 15.1668C11.958 15.1668 15.1667 11.9582 15.1667 8.00016C15.1667 4.04216 11.958 0.833496 8.00004 0.833496C4.04204 0.833496 0.833374 4.04216 0.833374 8.00016ZM11.1174 5.50882C11.3887 5.75749 11.4067 6.17948 11.158 6.45081L7.49138 10.4508C7.36871 10.5848 7.19604 10.6628 7.01471 10.6668C6.83271 10.6708 6.65737 10.6002 6.5287 10.4715L4.86204 8.80485C4.60137 8.54485 4.60137 8.12214 4.86204 7.86214C5.12204 7.60147 5.54471 7.60147 5.80471 7.86214L6.97937 9.03617L10.1754 5.54951C10.424 5.27818 10.846 5.26015 11.1174 5.50882Z" fill="#6B7280"/>
</svg>
