<svg width="24" height="24" viewBox="0 0 24 24" fill="none" xmlns="http://www.w3.org/2000/svg">
<path fill-rule="evenodd" clip-rule="evenodd" d="M13.547 3.25C15.386 3.25 16.8301 3.25 17.9688 3.3786C19.131 3.50988 20.0734 3.78362 20.8568 4.40228C21.0913 4.58749 21.3086 4.79204 21.5063 5.01379C22.1725 5.761 22.4701 6.6667 22.6118 7.77786C22.6281 7.90571 22.6362 7.96964 22.6216 8.02579C22.5981 8.11554 22.5292 8.19376 22.4431 8.22836C22.3893 8.25001 22.322 8.25 22.1872 8.25H1.81158C1.67681 8.25 1.60942 8.25001 1.55557 8.22836C1.46951 8.19376 1.40063 8.11554 1.3772 8.02579C1.36253 7.96964 1.37069 7.90571 1.38699 7.77786C1.52869 6.6667 1.82617 5.761 2.49234 5.01379C2.69004 4.79204 2.90748 4.58749 3.142 4.40228C3.92538 3.78362 4.86778 3.50988 6.02994 3.3786C7.16853 3.25 8.61283 3.25 10.4518 3.25H13.547ZM22.6524 9.83679C22.74 9.92357 22.7415 10.0614 22.7443 10.3371C22.7481 10.7109 22.749 11.1057 22.7493 11.5225L22.7494 12.0528C22.7494 13.7768 22.7494 15.1427 22.6118 16.2222C22.4701 17.3333 22.1725 18.239 21.5063 18.9862C21.3086 19.2079 21.0913 19.4125 20.8568 19.5977C20.0734 20.2164 19.131 20.4901 17.9688 20.6214C16.8301 20.75 15.3859 20.75 13.5468 20.75H10.4518C8.6128 20.75 7.16853 20.75 6.02994 20.6214C4.86778 20.4901 3.92537 20.2164 3.142 19.5977C2.90748 19.4125 2.69004 19.2079 2.49234 18.9862C1.82617 18.239 1.52869 17.3333 1.38699 16.2222C1.27231 15.3226 1.25319 14.2241 1.25 12.8852V11.1132C1.25064 10.845 1.25193 10.5864 1.25449 10.3371C1.25732 10.0614 1.25873 9.92357 1.34641 9.83679C1.42156 9.76241 1.53434 9.75176 1.73996 9.75024L22.1479 9.75C22.4257 9.75 22.5647 9.75001 22.6524 9.83679ZM12.4994 15.25H10.9994C10.5851 15.25 10.2494 15.5858 10.2494 16C10.2494 16.4142 10.5851 16.75 10.9994 16.75H12.4994C12.9136 16.75 13.2494 16.4142 13.2494 16C13.2494 15.5858 12.9136 15.25 12.4994 15.25ZM18.9994 15.25H15.4994C15.0852 15.25 14.7494 15.5858 14.7494 16C14.7494 16.4142 15.0852 16.75 15.4994 16.75H18.9994C19.4136 16.75 19.7494 16.4142 19.7494 16C19.7494 15.5858 19.4136 15.25 18.9994 15.25Z" fill="#6B7280"/>
</svg>
