<svg width="24" height="24" viewBox="0 0 24 24" fill="none" xmlns="http://www.w3.org/2000/svg">
<path d="M12 2C16.1956 2 19.8704 4.89414 19.9941 8.79688C20.1027 8.84905 20.2086 8.90871 20.3105 8.97656L21.9697 10.082C22.457 10.4065 22.7499 10.9527 22.75 11.5381V14.4668C22.75 15.0523 22.4571 15.5993 21.9697 15.9238L20.3105 17.0283C20.2103 17.0951 20.1066 17.1545 20 17.2061V19C20 20.6569 18.6569 22 17 22H12C11.4477 22 11 21.5523 11 21C11 20.4477 11.4477 20 12 20H17C17.5523 20 18 19.5523 18 19V17.3184C17.8966 17.2821 17.7939 17.2402 17.6943 17.1904C16.8092 16.7479 16.25 15.8431 16.25 14.8535V11.1514C16.2502 10.1618 16.8092 9.25692 17.6943 8.81445C17.7897 8.76681 17.8874 8.72567 17.9863 8.69043C17.7962 6.19352 15.327 4 12 4C8.67302 4 6.20282 6.19349 6.0127 8.69043C6.1119 8.72573 6.21006 8.76667 6.30566 8.81445C7.1908 9.25692 7.74984 10.1618 7.75 11.1514V14.8535C7.75 15.8431 7.19079 16.7479 6.30566 17.1904C5.46764 17.6093 4.46929 17.5475 3.68945 17.0283L2.03027 15.9238C1.54292 15.5993 1.25 15.0523 1.25 14.4668V11.5381C1.25008 10.9527 1.54304 10.4065 2.03027 10.082L3.68945 8.97656C3.79115 8.90887 3.8966 8.84896 4.00488 8.79688C4.12859 4.89413 7.80439 2 12 2Z" fill="#6B7280"/>
</svg>
