<svg width="24" height="24" viewBox="0 0 24 24" fill="none" xmlns="http://www.w3.org/2000/svg">
<path d="M12.0006 1.25C12.8665 1.25007 13.6404 1.52714 14.4762 1.99609C15.286 2.45056 16.2145 3.12111 17.3814 3.96484L18.8902 5.05664C19.8267 5.7337 20.5751 6.27388 21.1392 6.77441C21.7218 7.29128 22.1577 7.80694 22.4342 8.45508C22.7112 9.10462 22.778 9.77047 22.7408 10.5381C22.7049 11.2789 22.5674 12.1726 22.3961 13.2871L22.0806 15.3389C21.8373 16.9225 21.6436 18.1836 21.359 19.166C21.0646 20.182 20.65 20.9889 19.9088 21.6055C19.1707 22.2193 18.2914 22.4926 17.2174 22.623C16.1724 22.75 14.854 22.75 13.189 22.75H10.8111C9.14652 22.75 7.82859 22.7499 6.78377 22.623C5.70962 22.4926 4.82956 22.2194 4.09139 21.6055C3.35016 20.9889 2.93558 20.1819 2.6412 19.166C2.35653 18.1836 2.16286 16.9225 1.91952 15.3389L1.60409 13.2871C1.43281 12.1726 1.29522 11.2789 1.25936 10.5381C1.2222 9.77046 1.28993 9.10463 1.56698 8.45508C1.84342 7.80704 2.27844 7.29122 2.86092 6.77441C3.42507 6.27388 4.17351 5.7337 5.10995 5.05664L6.61873 3.96484C7.78568 3.12108 8.71412 2.45058 9.52401 1.99609C10.3599 1.52703 11.1345 1.25 12.0006 1.25ZM15.7896 16.3857C15.4504 15.95 14.8221 15.8719 14.3863 16.2109C13.7656 16.6941 12.9322 16.9999 12.0006 17C11.0689 17 10.2356 16.6941 9.61483 16.2109C9.17908 15.8717 8.55079 15.9501 8.21151 16.3857C7.87226 16.8216 7.9505 17.4498 8.38631 17.7891C9.36457 18.5505 10.6319 19 12.0006 19C13.3692 18.9999 14.6366 18.5505 15.6148 17.7891C16.0504 17.4498 16.1287 16.8215 15.7896 16.3857Z" fill="#9CA3AF"/>
</svg>
