<svg width="24" height="24" viewBox="0 0 24 24" fill="none" xmlns="http://www.w3.org/2000/svg">
<path d="M12.0006 1.25C12.8665 1.25007 13.6404 1.52714 14.4762 1.99609C15.286 2.45056 16.2145 3.1211 17.3814 3.96484L18.8902 5.05664C19.8267 5.7337 20.5751 6.27388 21.1392 6.77441C21.7218 7.29128 22.1577 7.80694 22.4342 8.45508C22.7112 9.10462 22.778 9.77047 22.7408 10.5381C22.7049 11.2789 22.5674 12.1726 22.3961 13.2871L22.0806 15.3389C21.8373 16.9225 21.6436 18.1836 21.359 19.166C21.0646 20.182 20.65 20.9889 19.9088 21.6055C19.1707 22.2193 18.2914 22.4926 17.2174 22.623C16.1724 22.75 14.854 22.75 13.189 22.75H10.8111C9.14652 22.75 7.82859 22.7499 6.78377 22.623C5.70962 22.4926 4.82956 22.2194 4.09139 21.6055C3.35016 20.9889 2.93558 20.1819 2.6412 19.166C2.35653 18.1836 2.16286 16.9225 1.91952 15.3389L1.60409 13.2871C1.43281 12.1726 1.29522 11.2789 1.25936 10.5381C1.2222 9.77046 1.28993 9.10463 1.56698 8.45508C1.84342 7.80704 2.27844 7.29122 2.86092 6.77441C3.42507 6.27388 4.17351 5.7337 5.10995 5.05664L6.61873 3.96484C7.78568 3.12108 8.71412 2.45058 9.52401 1.99609C10.3599 1.52703 11.1345 1.25 12.0006 1.25ZM12.0006 2.75C11.4837 2.75 10.9667 2.90625 10.2584 3.30371C9.53249 3.71106 8.67328 4.33115 7.46053 5.20801L6.02108 6.24902C5.04561 6.95432 4.35855 7.45154 3.85702 7.89648C3.36743 8.33087 3.10375 8.67382 2.94588 9.04395C2.78876 9.41255 2.72665 9.83052 2.75741 10.4658C2.78907 11.1193 2.9145 11.9358 3.09334 13.0996L3.39413 15.0586C3.64739 16.7066 3.82727 17.8712 4.08163 18.749C4.32938 19.6039 4.62385 20.0973 5.05038 20.4521C5.48011 20.8096 6.03919 21.0214 6.96444 21.1338C7.90841 21.2484 9.13583 21.25 10.8619 21.25H13.1392C14.8654 21.25 16.0927 21.2484 17.0367 21.1338C17.9617 21.0214 18.5201 20.8095 18.9498 20.4521C19.3764 20.0973 19.6708 19.604 19.9185 18.749C20.1729 17.8713 20.3528 16.7066 20.606 15.0586L20.9078 13.0996C21.0866 11.9358 21.2111 11.1193 21.2428 10.4658C21.2735 9.83045 21.2114 9.41258 21.0543 9.04395C20.8964 8.67382 20.6327 8.33087 20.1431 7.89648C19.6417 7.45164 18.9552 6.9541 17.9801 6.24902L16.5396 5.20801C15.327 4.33121 14.4686 3.71106 13.7428 3.30371C13.0344 2.90619 12.5175 2.75007 12.0006 2.75ZM14.5396 16.4082C14.8665 16.1538 15.3379 16.2122 15.5924 16.5391C15.8468 16.8659 15.7874 17.3374 15.4605 17.5918C14.5271 18.3183 13.3144 18.7499 12.0006 18.75C10.6865 18.75 9.47322 18.3185 8.53963 17.5918C8.21277 17.3374 8.15434 16.8659 8.40877 16.5391C8.66321 16.2126 9.13379 16.154 9.46053 16.4082C10.126 16.9262 11.0142 17.25 12.0006 17.25C12.9868 17.2499 13.8742 16.9262 14.5396 16.4082Z" fill="#9CA3AF"/>
</svg>
