<svg width="24" height="24" viewBox="0 0 24 24" fill="none" xmlns="http://www.w3.org/2000/svg">
<path d="M18 19.25C18.4142 19.25 18.75 19.5858 18.75 20C18.75 20.6042 18.3821 21.0605 17.9932 21.3672C17.5956 21.6805 17.0661 21.9305 16.4795 22.126C15.2986 22.5196 13.7149 22.75 12 22.75C10.2851 22.75 8.70145 22.5196 7.52051 22.126C6.93394 21.9305 6.40439 21.6805 6.00684 21.3672C5.61791 21.0605 5.25 20.6042 5.25 20C5.25 19.5858 5.58579 19.25 6 19.25C6.4103 19.25 6.74374 19.5795 6.75 19.9883C6.75711 20.0071 6.79185 20.0762 6.93555 20.1895C7.1452 20.3547 7.49504 20.5367 7.99414 20.7031C8.98474 21.0333 10.4013 21.25 12 21.25C13.5987 21.25 15.0153 21.0333 16.0059 20.7031C16.505 20.5367 16.8548 20.3547 17.0645 20.1895C17.2082 20.0762 17.2429 20.0071 17.25 19.9883C17.2563 19.5795 17.5897 19.25 18 19.25ZM12 1.25C16.4778 1.25 20.25 5.01859 20.25 9.58691C20.25 14.2513 16.402 17.4123 13.1699 19.4297L13.1465 19.4434C12.7977 19.6441 12.4025 19.75 12 19.75C11.5975 19.75 11.2023 19.6441 10.8535 19.4434L10.8398 19.4355L10.8271 19.4277C7.6076 17.3948 3.75001 14.2671 3.75 9.58691C3.75 5.01859 7.52225 1.25 12 1.25ZM12 2.75C8.36016 2.75 5.25 5.8375 5.25 9.58691C5.25001 13.3802 8.38957 16.1116 11.6133 18.1494C11.7323 18.2154 11.8652 18.25 12 18.25C12.1354 18.25 12.2692 18.215 12.3887 18.1484C15.6124 16.1341 18.75 13.3675 18.75 9.58691C18.75 5.8375 15.6398 2.75 12 2.75ZM12 5.75C14.0711 5.75 15.75 7.42893 15.75 9.5C15.75 11.5711 14.0711 13.25 12 13.25C9.92893 13.25 8.25 11.5711 8.25 9.5C8.25 7.42893 9.92893 5.75 12 5.75ZM12 7.25C10.7574 7.25 9.75 8.25736 9.75 9.5C9.75 10.7426 10.7574 11.75 12 11.75C13.2426 11.75 14.25 10.7426 14.25 9.5C14.25 8.25736 13.2426 7.25 12 7.25Z" fill="#9CA3AF"/>
</svg>
