<svg width="24" height="24" viewBox="0 0 24 24" fill="none" xmlns="http://www.w3.org/2000/svg">
<path d="M18 18.75C18.5523 18.75 19 19.1977 19 19.75C19 20.4638 18.565 20.9844 18.1475 21.3135C17.7186 21.6515 17.1597 21.9129 16.5586 22.1133C15.3459 22.5174 13.7343 22.75 12 22.75C10.2657 22.75 8.65407 22.5174 7.44141 22.1133C6.84028 21.9129 6.2814 21.6515 5.85254 21.3135C5.43501 20.9844 5 20.4638 5 19.75C5 19.1977 5.44772 18.75 6 18.75C6.5212 18.75 6.94956 19.1491 6.99609 19.6582C7.01344 19.6772 7.04322 19.7057 7.09082 19.7432C7.26921 19.8837 7.58893 20.0544 8.07324 20.2158C9.03211 20.5354 10.4207 20.75 12 20.75C13.5793 20.75 14.9679 20.5354 15.9268 20.2158C16.4111 20.0544 16.7308 19.8837 16.9092 19.7432C16.9568 19.7057 16.9866 19.6772 17.0039 19.6582C17.0504 19.1491 17.4788 18.75 18 18.75ZM12 1.25C16.4778 1.25 20.25 5.01859 20.25 9.58691C20.25 14.2513 16.402 17.4123 13.1699 19.4297L13.1465 19.4434C12.7977 19.6441 12.4025 19.75 12 19.75C11.5975 19.75 11.2023 19.6441 10.8535 19.4434L10.8398 19.4355L10.8271 19.4277C7.6076 17.3948 3.75001 14.2671 3.75 9.58691C3.75 5.01859 7.52225 1.25 12 1.25ZM12 6C10.067 6 8.5 7.567 8.5 9.5C8.5 11.433 10.067 13 12 13C13.933 13 15.5 11.433 15.5 9.5C15.5 7.567 13.933 6 12 6Z" fill="#9CA3AF"/>
</svg>
