<svg width="24" height="24" viewBox="0 0 24 24" fill="none" xmlns="http://www.w3.org/2000/svg">
<path d="M12.8496 2C13.3706 2 13.8838 2.03574 14.3857 2.10449C14.9328 2.17946 15.316 2.68344 15.2412 3.23047C15.1663 3.77764 14.6614 4.16089 14.1143 4.08594C13.7021 4.02949 13.2797 4 12.8496 4C8.03837 4.0002 4.25 7.64165 4.25 12C4.25 16.3583 8.03837 19.9998 12.8496 20C13.2797 20 13.7021 19.9705 14.1143 19.9141C14.6614 19.8391 15.1663 20.2224 15.2412 20.7695C15.316 21.3166 14.9328 21.8205 14.3857 21.8955C13.8838 21.9643 13.3706 22 12.8496 22C7.05734 21.9998 2.25 17.5825 2.25 12C2.25 6.41746 7.05734 2.0002 12.8496 2ZM17.9258 8.86328C18.4924 8.58869 18.9924 8.89075 19.1006 8.95605L19.5693 9.29492C19.9452 9.58955 20.4596 9.99557 20.8506 10.376C21.0456 10.5657 21.2465 10.7829 21.4053 11.0137C21.5465 11.2189 21.75 11.5693 21.75 12C21.75 12.4307 21.5465 12.7811 21.4053 12.9863C21.2465 13.2171 21.0456 13.4343 20.8506 13.624C20.4596 14.0044 19.9452 14.4104 19.5693 14.7051L19.1006 15.0439C18.9924 15.1093 18.4924 15.4113 17.9258 15.1367C17.3602 14.8624 17.2882 14.2856 17.2725 14.1592L17.2715 14.1562C17.2494 13.98 17.2499 13.7644 17.25 13.5889V13.0059H10.75C10.1977 13.0059 9.75 12.5581 9.75 12.0059C9.75 11.4536 10.1977 11.0059 10.75 11.0059H17.25V10.4111C17.2499 10.2356 17.2494 10.02 17.2715 9.84375L17.2725 9.84082C17.2882 9.71437 17.3602 9.13764 17.9258 8.86328Z" fill="#F87171"/>
</svg>
