<svg width="24" height="24" viewBox="0 0 24 24" fill="none" xmlns="http://www.w3.org/2000/svg">
<path d="M6 13.25C8.62335 13.25 10.75 15.3766 10.75 18C10.75 20.6234 8.62335 22.75 6 22.75C3.37665 22.75 1.25 20.6234 1.25 18C1.25 15.3766 3.37665 13.25 6 13.25ZM18 13.25C20.6234 13.25 22.75 15.3766 22.75 18C22.75 20.6234 20.6234 22.75 18 22.75C15.3766 22.75 13.25 20.6234 13.25 18C13.25 15.3766 15.3766 13.25 18 13.25ZM6 14.75C4.20507 14.75 2.75 16.2051 2.75 18C2.75 19.7949 4.20507 21.25 6 21.25C7.79493 21.25 9.25 19.7949 9.25 18C9.25 16.2051 7.79493 14.75 6 14.75ZM18 14.75C16.2051 14.75 14.75 16.2051 14.75 18C14.75 19.7949 16.2051 21.25 18 21.25C19.7949 21.25 21.25 19.7949 21.25 18C21.25 16.2051 19.7949 14.75 18 14.75ZM6 1.25C8.62335 1.25 10.75 3.37665 10.75 6C10.75 8.62335 8.62335 10.75 6 10.75C3.37665 10.75 1.25 8.62335 1.25 6C1.25 3.37665 3.37665 1.25 6 1.25ZM18 1.25C20.6234 1.25 22.75 3.37665 22.75 6C22.75 8.62335 20.6234 10.75 18 10.75C15.3766 10.75 13.25 8.62335 13.25 6C13.25 3.37665 15.3766 1.25 18 1.25ZM6 2.75C4.20507 2.75 2.75 4.20507 2.75 6C2.75 7.79493 4.20507 9.25 6 9.25C7.79493 9.25 9.25 7.79493 9.25 6C9.25 4.20507 7.79493 2.75 6 2.75ZM18 2.75C16.2051 2.75 14.75 4.20507 14.75 6C14.75 7.79493 16.2051 9.25 18 9.25C19.7949 9.25 21.25 7.79493 21.25 6C21.25 4.20507 19.7949 2.75 18 2.75Z" fill="#9CA3AF"/>
</svg>
