<svg width="24" height="24" viewBox="0 0 24 24" fill="none" xmlns="http://www.w3.org/2000/svg">
<path fill-rule="evenodd" clip-rule="evenodd" d="M13.4024 1.25C13.6819 1.28187 13.9758 1.35545 14.2501 1.55273C14.5243 1.75011 14.6873 2.00541 14.8058 2.25977C14.9122 2.48825 15.4483 4.08887 15.4483 4.08887C15.5436 4.32822 15.7107 4.53175 15.9259 4.67285C16.5153 5.05943 17.0386 4.95299 17.0518 4.9502C17.3818 4.85684 18.9332 4.42108 19.1993 4.37891C19.4948 4.33215 19.8182 4.32551 20.1524 4.46094C20.4864 4.59631 20.7137 4.82571 20.8927 5.06445C20.8927 5.06445 22.2303 7.31295 22.3321 7.54688C22.4447 7.80606 22.5269 8.09907 22.4913 8.43652C22.4557 8.77402 22.3137 9.04326 22.1495 9.27344C22.0019 9.48006 20.5547 11.0897 20.544 11.1016C20.544 11.1016 20.2843 11.4152 20.2843 12C20.2843 12.4994 20.544 12.8984 20.544 12.8984C20.7594 13.1371 22.0017 14.5195 22.1495 14.7266C22.3137 14.9567 22.4557 15.226 22.4913 15.5635C22.5268 15.9007 22.4446 16.1931 22.3321 16.4521L20.8927 18.9346C20.7137 19.1735 20.4866 19.4026 20.1524 19.5381C19.8181 19.6736 19.4948 19.6679 19.1993 19.6211C18.9332 19.5789 17.0518 19.0498 17.0518 19.0498C16.7742 18.9898 16.3481 19.0493 15.9259 19.3262C15.7107 19.4673 15.4483 19.9111 15.4483 19.9111C15.4454 19.92 14.9119 21.5124 14.8058 21.7402C14.6873 21.9946 14.5243 22.2499 14.2501 22.4473C13.9758 22.6445 13.6819 22.7181 13.4024 22.75H10.5977C10.3183 22.7181 10.0243 22.6445 9.75009 22.4473C9.47587 22.2499 9.31292 21.9946 9.19442 21.7402C9.08828 21.5124 8.55483 19.9201 8.55184 19.9111C8.55184 19.9111 8.28945 19.4673 8.07431 19.3262C7.65207 19.0493 7.22599 18.9898 6.94833 19.0498C6.94833 19.0498 5.06695 19.5789 4.80087 19.6211C4.50535 19.6679 4.18204 19.6736 3.84774 19.5381C3.51361 19.4026 3.28652 19.1735 3.10751 18.9346L1.66806 16.4521C1.55558 16.1931 1.47336 15.9007 1.50888 15.5635C1.54445 15.226 1.68643 14.9567 1.85067 14.7266C1.99848 14.5195 3.24081 13.1371 3.45614 12.8984C3.45614 12.8984 3.71585 12.4994 3.71591 12C3.71591 11.4152 3.45614 11.1016 3.45614 11.1016C3.4455 11.0897 1.99827 9.48007 1.85067 9.27344C1.68643 9.04326 1.54445 8.77402 1.50888 8.43652C1.47332 8.09907 1.55545 7.80606 1.66806 7.54688C1.76991 7.31295 3.10751 5.06445 3.10751 5.06445C3.28649 4.82571 3.51379 4.59631 3.84774 4.46094C4.18197 4.32551 4.50541 4.33215 4.80087 4.37891C5.06697 4.42108 6.61841 4.85684 6.94833 4.9502C6.96163 4.95299 7.48483 5.05942 8.07431 4.67285C8.28943 4.53175 8.45656 4.32822 8.55184 4.08887C8.55184 4.08887 9.08799 2.48825 9.19442 2.25977C9.31292 2.00541 9.47587 1.75011 9.75009 1.55273C10.0243 1.35545 10.3183 1.28187 10.5977 1.25H13.4024ZM12.0196 8.5C10.0866 8.5 8.51962 10.067 8.51962 12C8.51962 13.933 10.0866 15.5 12.0196 15.5C13.9526 15.5 15.5196 13.933 15.5196 12C15.5196 10.067 13.9526 8.5 12.0196 8.5Z" fill="#6B7280"/>
</svg>
