<svg width="16" height="16" viewBox="0 0 16 16" fill="none" xmlns="http://www.w3.org/2000/svg">
<path d="M8.33165 0.941363C8.93838 0.885611 10.126 0.799419 11.2877 0.847613C11.8676 0.871685 12.4578 0.929423 12.9733 1.04781C13.4723 1.16244 13.978 1.35038 14.3141 1.68648C14.65 2.02261 14.8372 2.52836 14.9518 3.0273C15.0701 3.5428 15.1289 4.13296 15.1529 4.71285C15.2011 5.87431 15.1149 7.06115 15.0592 7.66793C15.0244 8.04642 14.8693 8.39627 14.6275 8.67769C12.8213 10.7792 10.9483 12.6929 8.90392 14.5234C7.96853 15.3606 6.5722 15.3692 5.59825 14.6152C3.99182 13.3714 2.62819 12.0087 1.38438 10.4023C0.630183 9.42822 0.639616 8.03107 1.47716 7.09566C3.30751 5.05144 5.22046 3.17912 7.32188 1.373C7.6033 1.13114 7.95311 0.976192 8.33165 0.941363ZM5.13829 8.86226C4.87794 8.60191 4.45528 8.60191 4.19493 8.86226C3.93503 9.12257 3.93493 9.5444 4.19493 9.80464L6.19493 11.8046C6.45528 12.065 6.87794 12.065 7.13829 11.8046C7.39844 11.5444 7.39834 11.1226 7.13829 10.8623L5.13829 8.86226ZM11.6666 3.33296C11.1145 3.33303 10.6668 3.78087 10.6666 4.33296C10.6666 4.88521 11.1144 5.3329 11.6666 5.33296C12.2189 5.33296 12.6666 4.88525 12.6666 4.33296C12.6664 3.78084 12.2188 3.33296 11.6666 3.33296Z" fill="#6B7280"/>
</svg>
