<svg width="16" height="16" viewBox="0 0 16 16" fill="none" xmlns="http://www.w3.org/2000/svg">
<path d="M3.96313 9.8916C6.33246 8.4809 9.33503 8.48079 11.7043 9.8916C11.7818 9.93767 11.8774 9.99165 11.9856 10.0527C12.4607 10.3208 13.179 10.7264 13.6711 11.208C13.9789 11.5093 14.2722 11.9062 14.3254 12.3926C14.3819 12.9097 14.1559 13.395 13.7034 13.8262C12.9224 14.5702 11.9849 15.167 10.7727 15.167H4.8938C3.68176 15.1669 2.745 14.5701 1.96411 13.8262C1.51143 13.3949 1.28551 12.9098 1.34204 12.3926C1.3952 11.9062 1.68758 11.5093 1.99536 11.208C2.48747 10.7263 3.2057 10.3208 3.68091 10.0527C3.78932 9.99155 3.88561 9.93773 3.96313 9.8916ZM7.83325 0.833008C9.76614 0.833008 11.3331 2.40016 11.3332 4.33301C11.3332 6.266 9.76625 7.83301 7.83325 7.83301C5.90034 7.83293 4.33325 6.26596 4.33325 4.33301C4.33342 2.4002 5.90045 0.833082 7.83325 0.833008Z" fill="#6B7280"/>
</svg>
